<?xml version="1.0" encoding="UTF-8"?>
<!-- Created with Inkscape (http://www.inkscape.org/) -->
<svg width="210mm" height="297mm" version="1.1" viewBox="0 0 210 297" xmlns="http://www.w3.org/2000/svg" xmlns:xlink="http://www.w3.org/1999/xlink">
 <defs>
  <linearGradient id="linearGradient1195" x1="83.241" x2="155.17" y1="197.35" y2="248.81" gradientTransform="matrix(.79893 0 0 .79893 10.414 -42.831)" gradientUnits="userSpaceOnUse">
   <stop stop-color="#0ff" offset="0"/>
   <stop stop-color="#fd40db" offset="1"/>
  </linearGradient>
 </defs>
 <path d="m107.75 80.581c-2.2751 0.32596-4.4281 1.0554-6.3415 2.3447-12.378 8.3399-5.3262 29.254 9.9351 27.068 2.5163-0.36063 4.8866-1.1903 6.9757-2.6666 12.221-8.6365 4.2772-28.873-10.569-26.746m0.63415 4.1983c10.844-1.4126 16.299 13.633 6.9757 19.425-1.3416 0.83371-2.8687 1.3865-4.4391 1.5911-10.954 1.4268-16.147-13.542-6.9757-19.45 1.307-0.84182 2.8987-1.3658 4.4391-1.5664m-0.84553 29.322v10.781h4.2277v-10.781h-4.2277m0.42277 15.099c-2.266 0.32468-4.4038 1.011-6.3415 2.2538-1.6101 1.0326-3.037 2.4334-4.1347 3.9973-7.5048 10.69 2.2168 24.897 14.704 23.013 1.945-0.29362 3.8299-1.0631 5.496-2.0995 12.918-8.0354 5.4751-29.341-9.7237-27.164m0.42276 4.1983c11.033-1.4336 16.461 13.977 6.7643 19.624-1.2296 0.71616-2.603 1.2085-4.0163 1.3926-11.092 1.4448-16.493-13.651-6.9757-19.549 1.2875-0.79777 2.7273-1.2725 4.2277-1.4676m-23.464 22.557 1.9025 3.5935 7.6098-4.0163-1.9025-3.5935-7.6098 4.0163m42.065-4.0163-2.1138 3.5935 7.6098 4.0163 1.9025-3.5935-7.3984-4.0163m-59.188 0.5126c-2.5173 0.34265-4.9087 1.1203-6.9757 2.6421-11.494 8.4634-4.9605 28.631 9.9351 26.801 2.6389-0.32406 5.2328-1.1413 7.3984-2.7212 11.85-8.6444 4.5467-28.751-10.358-26.722m80.537 0c-2.4506 0.33356-4.672 1.028-6.7643 2.3831-7.211 4.6705-8.6568 15.33-3.1071 21.836 3.4265 4.0171 8.5304 5.7169 13.676 5.0396 2.006-0.26402 4.0258-1.0398 5.7074-2.1555 10.443-6.9277 8.0275-23.714-4.4391-26.743-1.6378-0.39783-3.3969-0.5887-5.0732-0.36062m-80.326 4.2013c11.024-1.575 16.505 13.445 7.1871 19.447-1.3305 0.85695-2.8731 1.363-4.4391 1.5666-10.998 1.4292-16.15-13.511-6.9757-19.45 1.272-0.82335 2.7255-1.3495 4.2277-1.564m80.115 0c11.254-1.6215 16.893 13.557 7.1871 19.581-1.2195 0.75717-2.5914 1.2467-4.0163 1.4326-1.5327 0.19954-3.1731 0.081-4.6504-0.36992-10.4-3.1746-9.4032-19.076 1.4797-20.644" fill="url(#linearGradient1195)"/>
</svg>
